<svg xmlns="http://www.w3.org/2000/svg" viewBox="0 0 292.11 410.8"><defs><style>.cls-1{fill:#fff;}</style></defs><title>droplet</title><g id="Layer_2" data-name="Layer 2"><g id="Layer_1-2" data-name="Layer 1"><path class="cls-1" d="M280.31,214c-10.41-25.95-24-50.26-39.22-73.63q-7-10.74-14.12-21.37H64.67q-6.39,9.57-12.68,19.2c-15.67,24-29.72,49-40.28,75.8Z"/><path class="cls-1" d="M1.15,250A95.47,95.47,0,0,0,0,266c.4,27.18,7.37,52.59,22.07,75.6q36.51,57.18,103.68,67.65c4.07.63,8.17,1.07,12.26,1.6h16.06c1.31-.22,2.61-.42,3.91-.67,11.12-2.19,22.56-3.36,33.28-6.78,31.07-9.88,55.9-28.71,74.64-55.4,14.42-20.54,22.62-43.47,25.51-68.37a109.51,109.51,0,0,0-.69-29.54Z"/><path class="cls-1" d="M202.59,83C195.32,72.33,188.08,61.62,181,50.82c-10.14-15.37-19.24-31.42-29-47C150.73,2,148-.12,146.09,0c-2.16.14-4.85,2.19-6.1,4.17-6.49,10.27-12.18,21.05-18.91,31.15C110.45,51.3,99.67,67.16,88.9,83Z"/></g></g></svg>